<?xml version="1.0" encoding="UTF-8"?>
<!-- Do not edit this file with editors other than draw.io -->
<!DOCTYPE svg PUBLIC "-//W3C//DTD SVG 1.1//EN" "http://www.w3.org/Graphics/SVG/1.1/DTD/svg11.dtd">
<svg xmlns="http://www.w3.org/2000/svg" style="background: #ffffff; background-color: light-dark(#ffffff, var(--ge-dark-color, #121212)); color-scheme: light;" xmlns:xlink="http://www.w3.org/1999/xlink" version="1.1" width="761px" height="681px" viewBox="-0.5 -0.5 761 681" content="&lt;mxfile host=&quot;Electron&quot; agent=&quot;Mozilla/5.0 (Macintosh; Intel Mac OS X 10_15_7) AppleWebKit/537.36 (KHTML, like Gecko) draw.io/27.0.2 Chrome/134.0.6998.205 Electron/35.3.0 Safari/537.36&quot; version=&quot;27.0.2&quot; scale=&quot;1&quot; border=&quot;0&quot;&gt;&#10;  &lt;diagram name=&quot;Page-1&quot; id=&quot;0JgG3E7FZ81k-YAELPCr&quot;&gt;&#10;    &lt;mxGraphModel dx=&quot;1911&quot; dy=&quot;912&quot; grid=&quot;1&quot; gridSize=&quot;10&quot; guides=&quot;1&quot; tooltips=&quot;1&quot; connect=&quot;1&quot; arrows=&quot;1&quot; fold=&quot;1&quot; page=&quot;1&quot; pageScale=&quot;1&quot; pageWidth=&quot;827&quot; pageHeight=&quot;1169&quot; math=&quot;0&quot; shadow=&quot;0&quot; adaptiveColors=&quot;none&quot;&gt;&#10;      &lt;root&gt;&#10;        &lt;mxCell id=&quot;0&quot; /&gt;&#10;        &lt;mxCell id=&quot;1&quot; parent=&quot;0&quot; /&gt;&#10;        &lt;mxCell id=&quot;tpA2slG5kOivLTeZdrLU-1&quot; value=&quot;&quot; style=&quot;container=1;collapsible=0;expand=0;recursiveResize=0;html=1;whiteSpace=wrap;strokeColor=#1192E8;fillColor=none;strokeWidth=1&quot; vertex=&quot;1&quot; parent=&quot;1&quot;&gt;&#10;          &lt;mxGeometry x=&quot;-60&quot; y=&quot;190&quot; width=&quot;760&quot; height=&quot;680&quot; as=&quot;geometry&quot; /&gt;&#10;        &lt;/mxCell&gt;&#10;        &lt;mxCell id=&quot;tpA2slG5kOivLTeZdrLU-2&quot; value=&quot;IBM Cloud&quot; style=&quot;shape=rect;fillColor=none;aspect=fixed;resizable=0;labelPosition=right;verticalLabelPosition=middle;align=left;verticalAlign=middle;strokeColor=none;part=1;spacingLeft=5;fontSize=14;&quot; vertex=&quot;1&quot; parent=&quot;tpA2slG5kOivLTeZdrLU-1&quot;&gt;&#10;          &lt;mxGeometry width=&quot;48&quot; height=&quot;48&quot; relative=&quot;1&quot; as=&quot;geometry&quot; /&gt;&#10;        &lt;/mxCell&gt;&#10;        &lt;mxCell id=&quot;tpA2slG5kOivLTeZdrLU-3&quot; value=&quot;&quot; style=&quot;fillColor=#1192E8;shape=mxgraph.ibm_cloud.ibm-cloud;strokeColor=none;dashed=0;outlineConnect=0;html=1;labelPosition=center;verticalLabelPosition=bottom;verticalAlign=top;part=1;movable=0;resizable=0;rotatable=0;&quot; vertex=&quot;1&quot; parent=&quot;tpA2slG5kOivLTeZdrLU-2&quot;&gt;&#10;          &lt;mxGeometry width=&quot;24&quot; height=&quot;24&quot; relative=&quot;1&quot; as=&quot;geometry&quot;&gt;&#10;            &lt;mxPoint x=&quot;12&quot; y=&quot;12&quot; as=&quot;offset&quot; /&gt;&#10;          &lt;/mxGeometry&gt;&#10;        &lt;/mxCell&gt;&#10;        &lt;mxCell id=&quot;tpA2slG5kOivLTeZdrLU-4&quot; value=&quot;&quot; style=&quot;shape=rect;fillColor=#1192E8;aspect=fixed;resizable=0;labelPosition=right;verticalLabelPosition=middle;align=left;verticalAlign=middle;strokeColor=none;part=1;spacingLeft=5;fontSize=14;&quot; vertex=&quot;1&quot; parent=&quot;tpA2slG5kOivLTeZdrLU-1&quot;&gt;&#10;          &lt;mxGeometry width=&quot;4&quot; height=&quot;48&quot; relative=&quot;1&quot; as=&quot;geometry&quot; /&gt;&#10;        &lt;/mxCell&gt;&#10;        &lt;mxCell id=&quot;tpA2slG5kOivLTeZdrLU-5&quot; value=&quot;&quot; style=&quot;container=1;collapsible=0;expand=0;recursiveResize=0;html=1;whiteSpace=wrap;strokeColor=#878D96;fillColor=none;strokeWidth=1&quot; vertex=&quot;1&quot; parent=&quot;tpA2slG5kOivLTeZdrLU-1&quot;&gt;&#10;          &lt;mxGeometry x=&quot;40&quot; y=&quot;60&quot; width=&quot;680&quot; height=&quot;570&quot; as=&quot;geometry&quot; /&gt;&#10;        &lt;/mxCell&gt;&#10;        &lt;mxCell id=&quot;tpA2slG5kOivLTeZdrLU-6&quot; value=&quot;Region&quot; style=&quot;shape=rect;fillColor=none;aspect=fixed;resizable=0;labelPosition=right;verticalLabelPosition=middle;align=left;verticalAlign=middle;strokeColor=none;part=1;spacingLeft=5;fontSize=14;&quot; vertex=&quot;1&quot; parent=&quot;tpA2slG5kOivLTeZdrLU-5&quot;&gt;&#10;          &lt;mxGeometry width=&quot;48&quot; height=&quot;48&quot; relative=&quot;1&quot; as=&quot;geometry&quot; /&gt;&#10;        &lt;/mxCell&gt;&#10;        &lt;mxCell id=&quot;tpA2slG5kOivLTeZdrLU-7&quot; value=&quot;&quot; style=&quot;fillColor=#878D96;shape=mxgraph.ibm_cloud.location;strokeColor=none;dashed=0;outlineConnect=0;html=1;labelPosition=center;verticalLabelPosition=bottom;verticalAlign=top;part=1;movable=0;resizable=0;rotatable=0;&quot; vertex=&quot;1&quot; parent=&quot;tpA2slG5kOivLTeZdrLU-6&quot;&gt;&#10;          &lt;mxGeometry width=&quot;24&quot; height=&quot;24&quot; relative=&quot;1&quot; as=&quot;geometry&quot;&gt;&#10;            &lt;mxPoint x=&quot;12&quot; y=&quot;12&quot; as=&quot;offset&quot; /&gt;&#10;          &lt;/mxGeometry&gt;&#10;        &lt;/mxCell&gt;&#10;        &lt;mxCell id=&quot;tpA2slG5kOivLTeZdrLU-8&quot; value=&quot;&quot; style=&quot;shape=rect;fillColor=#878D96;aspect=fixed;resizable=0;labelPosition=right;verticalLabelPosition=middle;align=left;verticalAlign=middle;strokeColor=none;part=1;spacingLeft=5;fontSize=14;&quot; vertex=&quot;1&quot; parent=&quot;tpA2slG5kOivLTeZdrLU-5&quot;&gt;&#10;          &lt;mxGeometry width=&quot;4&quot; height=&quot;48&quot; relative=&quot;1&quot; as=&quot;geometry&quot; /&gt;&#10;        &lt;/mxCell&gt;&#10;        &lt;mxCell id=&quot;tpA2slG5kOivLTeZdrLU-9&quot; value=&quot;&quot; style=&quot;container=1;collapsible=0;expand=0;recursiveResize=0;html=1;whiteSpace=wrap;strokeColor=#FA4D56;fillColor=none;strokeWidth=2&quot; vertex=&quot;1&quot; parent=&quot;tpA2slG5kOivLTeZdrLU-5&quot;&gt;&#10;          &lt;mxGeometry x=&quot;55&quot; y=&quot;80&quot; width=&quot;570&quot; height=&quot;440&quot; as=&quot;geometry&quot; /&gt;&#10;        &lt;/mxCell&gt;&#10;        &lt;mxCell id=&quot;tpA2slG5kOivLTeZdrLU-10&quot; value=&quot;Resource Group&quot; style=&quot;shape=rect;fillColor=none;aspect=fixed;resizable=0;labelPosition=right;verticalLabelPosition=middle;align=left;verticalAlign=middle;strokeColor=none;part=1;spacingLeft=5;fontSize=14;&quot; vertex=&quot;1&quot; parent=&quot;tpA2slG5kOivLTeZdrLU-9&quot;&gt;&#10;          &lt;mxGeometry width=&quot;48&quot; height=&quot;48&quot; relative=&quot;1&quot; as=&quot;geometry&quot; /&gt;&#10;        &lt;/mxCell&gt;&#10;        &lt;mxCell id=&quot;tpA2slG5kOivLTeZdrLU-11&quot; value=&quot;&quot; style=&quot;fillColor=#FA4D56;shape=mxgraph.ibm_cloud.group--resource;strokeColor=none;dashed=0;outlineConnect=0;html=1;labelPosition=center;verticalLabelPosition=bottom;verticalAlign=top;part=1;movable=0;resizable=0;rotatable=0;&quot; vertex=&quot;1&quot; parent=&quot;tpA2slG5kOivLTeZdrLU-10&quot;&gt;&#10;          &lt;mxGeometry width=&quot;24&quot; height=&quot;24&quot; relative=&quot;1&quot; as=&quot;geometry&quot;&gt;&#10;            &lt;mxPoint x=&quot;12&quot; y=&quot;12&quot; as=&quot;offset&quot; /&gt;&#10;          &lt;/mxGeometry&gt;&#10;        &lt;/mxCell&gt;&#10;        &lt;mxCell id=&quot;tpA2slG5kOivLTeZdrLU-30&quot; value=&quot;&quot; style=&quot;container=1;collapsible=0;expand=0;recursiveResize=0;html=1;whiteSpace=wrap;strokeColor=#0E3C96;fillColor=none;strokeWidth=1&quot; vertex=&quot;1&quot; parent=&quot;tpA2slG5kOivLTeZdrLU-9&quot;&gt;&#10;          &lt;mxGeometry x=&quot;240&quot; y=&quot;40&quot; width=&quot;295&quot; height=&quot;360&quot; as=&quot;geometry&quot; /&gt;&#10;        &lt;/mxCell&gt;&#10;        &lt;mxCell id=&quot;tpA2slG5kOivLTeZdrLU-31&quot; value=&quot;          Cloud Automation for Observability&quot; style=&quot;shape=rect;fillColor=light-dark(#055de1, #70757d);aspect=fixed;resizable=0;labelPosition=right;verticalLabelPosition=middle;align=left;verticalAlign=middle;strokeColor=none;part=1;spacingLeft=5;fontSize=13;&quot; vertex=&quot;1&quot; parent=&quot;tpA2slG5kOivLTeZdrLU-30&quot;&gt;&#10;          &lt;mxGeometry width=&quot;4&quot; height=&quot;48&quot; relative=&quot;1&quot; as=&quot;geometry&quot; /&gt;&#10;        &lt;/mxCell&gt;&#10;        &lt;mxCell id=&quot;tpA2slG5kOivLTeZdrLU-61&quot; value=&quot;Cloud Logs&quot; style=&quot;shape=rect;fillColor=#009D9A;aspect=fixed;resizable=1;labelPosition=center;verticalLabelPosition=bottom;align=center;verticalAlign=top;strokeColor=none;fontSize=14;movable=1;rotatable=1;deletable=1;editable=1;locked=0;connectable=1;&quot; vertex=&quot;1&quot; parent=&quot;tpA2slG5kOivLTeZdrLU-30&quot;&gt;&#10;          &lt;mxGeometry x=&quot;117.5&quot; y=&quot;50&quot; width=&quot;60&quot; height=&quot;60&quot; as=&quot;geometry&quot; /&gt;&#10;        &lt;/mxCell&gt;&#10;        &lt;mxCell id=&quot;tpA2slG5kOivLTeZdrLU-62&quot; value=&quot;&quot; style=&quot;fillColor=#ffffff;strokeColor=none;dashed=0;outlineConnect=0;html=1;labelPosition=center;verticalLabelPosition=bottom;verticalAlign=top;part=1;movable=1;resizable=1;rotatable=1;shape=mxgraph.ibm_cloud.ibm-cloud--logging;deletable=1;editable=1;locked=0;connectable=1;&quot; vertex=&quot;1&quot; parent=&quot;tpA2slG5kOivLTeZdrLU-61&quot;&gt;&#10;          &lt;mxGeometry width=&quot;24&quot; height=&quot;24&quot; relative=&quot;1&quot; as=&quot;geometry&quot;&gt;&#10;            &lt;mxPoint x=&quot;12&quot; y=&quot;12&quot; as=&quot;offset&quot; /&gt;&#10;          &lt;/mxGeometry&gt;&#10;        &lt;/mxCell&gt;&#10;        &lt;mxCell id=&quot;tpA2slG5kOivLTeZdrLU-63&quot; value=&quot;Flow Logs&quot; style=&quot;shape=rect;fillColor=#009D9A;aspect=fixed;resizable=1;labelPosition=center;verticalLabelPosition=bottom;align=center;verticalAlign=top;strokeColor=none;fontSize=14;movable=1;rotatable=1;deletable=1;editable=1;locked=0;connectable=1;&quot; vertex=&quot;1&quot; parent=&quot;tpA2slG5kOivLTeZdrLU-30&quot;&gt;&#10;          &lt;mxGeometry x=&quot;117.5&quot; y=&quot;150&quot; width=&quot;60&quot; height=&quot;60&quot; as=&quot;geometry&quot; /&gt;&#10;        &lt;/mxCell&gt;&#10;        &lt;mxCell id=&quot;tpA2slG5kOivLTeZdrLU-64&quot; value=&quot;&quot; style=&quot;fillColor=#ffffff;strokeColor=none;dashed=0;outlineConnect=0;html=1;labelPosition=center;verticalLabelPosition=bottom;verticalAlign=top;part=1;movable=0;resizable=0;rotatable=0;shape=mxgraph.ibm_cloud.flow-logs-vpc&quot; vertex=&quot;1&quot; parent=&quot;tpA2slG5kOivLTeZdrLU-63&quot;&gt;&#10;          &lt;mxGeometry width=&quot;24&quot; height=&quot;24&quot; relative=&quot;1&quot; as=&quot;geometry&quot;&gt;&#10;            &lt;mxPoint x=&quot;12&quot; y=&quot;12&quot; as=&quot;offset&quot; /&gt;&#10;          &lt;/mxGeometry&gt;&#10;        &lt;/mxCell&gt;&#10;        &lt;mxCell id=&quot;tpA2slG5kOivLTeZdrLU-52&quot; value=&quot;Watson Discovery&quot; style=&quot;shape=rect;fillColor=#A56EFF;aspect=fixed;resizable=1;labelPosition=center;verticalLabelPosition=bottom;align=center;verticalAlign=top;strokeColor=none;fontSize=14;movable=1;rotatable=1;deletable=1;editable=1;locked=0;connectable=1;&quot; vertex=&quot;1&quot; parent=&quot;tpA2slG5kOivLTeZdrLU-9&quot;&gt;&#10;          &lt;mxGeometry x=&quot;40&quot; y=&quot;95&quot; width=&quot;175&quot; height=&quot;175&quot; as=&quot;geometry&quot; /&gt;&#10;        &lt;/mxCell&gt;&#10;        &lt;mxCell id=&quot;tpA2slG5kOivLTeZdrLU-53&quot; value=&quot;&quot; style=&quot;fillColor=#ffffff;strokeColor=none;dashed=0;outlineConnect=0;html=1;labelPosition=center;verticalLabelPosition=bottom;verticalAlign=top;part=1;movable=0;resizable=0;rotatable=0;shape=mxgraph.ibm_cloud.ibm-watson--discovery&quot; vertex=&quot;1&quot; parent=&quot;tpA2slG5kOivLTeZdrLU-52&quot;&gt;&#10;          &lt;mxGeometry width=&quot;24&quot; height=&quot;24&quot; relative=&quot;1&quot; as=&quot;geometry&quot;&gt;&#10;            &lt;mxPoint x=&quot;12&quot; y=&quot;12&quot; as=&quot;offset&quot; /&gt;&#10;          &lt;/mxGeometry&gt;&#10;        &lt;/mxCell&gt;&#10;        &lt;mxCell id=&quot;tpA2slG5kOivLTeZdrLU-65&quot; value=&quot;Monitoring&quot; style=&quot;shape=rect;fillColor=#009D9A;aspect=fixed;resizable=1;labelPosition=center;verticalLabelPosition=bottom;align=center;verticalAlign=top;strokeColor=none;fontSize=14;movable=1;rotatable=1;deletable=1;editable=1;locked=0;connectable=1;&quot; vertex=&quot;1&quot; parent=&quot;1&quot;&gt;&#10;          &lt;mxGeometry x=&quot;390&quot; y=&quot;620&quot; width=&quot;60&quot; height=&quot;60&quot; as=&quot;geometry&quot; /&gt;&#10;        &lt;/mxCell&gt;&#10;        &lt;mxCell id=&quot;tpA2slG5kOivLTeZdrLU-66&quot; value=&quot;&quot; style=&quot;fillColor=#ffffff;strokeColor=none;dashed=0;outlineConnect=0;html=1;labelPosition=center;verticalLabelPosition=bottom;verticalAlign=top;part=1;movable=0;resizable=0;rotatable=0;shape=mxgraph.ibm_cloud.cloud--monitoring&quot; vertex=&quot;1&quot; parent=&quot;tpA2slG5kOivLTeZdrLU-65&quot;&gt;&#10;          &lt;mxGeometry width=&quot;24&quot; height=&quot;24&quot; relative=&quot;1&quot; as=&quot;geometry&quot;&gt;&#10;            &lt;mxPoint x=&quot;12&quot; y=&quot;12&quot; as=&quot;offset&quot; /&gt;&#10;          &lt;/mxGeometry&gt;&#10;        &lt;/mxCell&gt;&#10;      &lt;/root&gt;&#10;    &lt;/mxGraphModel&gt;&#10;  &lt;/diagram&gt;&#10;&lt;/mxfile&gt;&#10;"><defs><style type="text/css">@font-face {font-family: "IBM Plex Sans";src: url("fonts/IBMPlexSans-Regular.woff")}&#xa;</style></defs><rect fill="#ffffff" width="100%" height="100%" x="0" y="0" style="fill: light-dark(#ffffff, var(--ge-dark-color, #121212));"/><g><g data-cell-id="0"><g data-cell-id="1"><g data-cell-id="tpA2slG5kOivLTeZdrLU-1"><g><rect x="0" y="0" width="760" height="680" fill="none" stroke="#1192e8" pointer-events="all" style="stroke: light-dark(rgb(17, 146, 232), rgb(38, 149, 223));"/></g><g data-cell-id="tpA2slG5kOivLTeZdrLU-2"><g><rect x="0" y="0" width="48" height="48" fill="none" stroke="none" pointer-events="all"/></g><g><g fill="#000000" font-family="&quot;Helvetica&quot;" font-size="14px" style="fill: light-dark(rgb(0, 0, 0), rgb(255, 255, 255));"><text x="54.5" y="29.5">IBM Cloud</text></g></g><g data-cell-id="tpA2slG5kOivLTeZdrLU-3"><g><rect x="12.02" y="12" width="23.88" height="24" fill="none" stroke="none" pointer-events="all"/><rect x="12" y="12" width="0" height="0" fill="none" stroke="none" pointer-events="all"/><path d="M 30.36 22.24 C 28.84 19.37 25.61 17.86 22.45 18.54 C 19.28 19.21 16.94 21.91 16.71 25.15 C 14.05 25.44 12.08 27.77 12.22 30.46 C 12.36 33.14 14.57 35.25 17.24 35.25 L 29.19 35.25 C 32.56 35.25 35.39 32.67 35.69 29.29 C 36 25.9 33.69 22.85 30.36 22.24 Z M 29.19 34.13 L 17.24 34.13 C 15.18 34.13 13.47 32.53 13.33 30.46 C 13.19 28.39 14.68 26.57 16.72 26.3 C 16.8 27.3 17.08 28.26 17.55 29.14 C 17.69 29.42 18.03 29.52 18.3 29.37 C 18.58 29.22 18.68 28.88 18.53 28.61 C 17 25.72 17.96 22.14 20.74 20.42 C 23.51 18.71 27.13 19.46 29 22.13 C 27.19 22.18 25.49 22.99 24.29 24.35 C 24.15 24.5 24.1 24.71 24.16 24.91 C 24.23 25.1 24.39 25.25 24.59 25.29 C 24.79 25.32 25 25.25 25.13 25.09 C 26.77 23.21 29.48 22.71 31.69 23.87 C 33.9 25.03 35.03 27.55 34.44 29.98 C 33.85 32.42 31.68 34.12 29.19 34.13 Z M 35.83 19.69 C 35.75 19.56 35.63 19.47 35.48 19.43 C 35.34 19.39 35.18 19.41 35.05 19.48 L 32.8 20.79 C 32.62 20.89 32.5 21.08 32.5 21.29 C 32.49 21.5 32.61 21.69 32.79 21.79 C 32.97 21.89 33.19 21.89 33.36 21.78 L 35.62 20.47 C 35.89 20.31 35.98 19.96 35.83 19.69 Z M 28.94 17.9 C 29.07 17.98 29.23 18 29.37 17.96 C 29.52 17.92 29.64 17.82 29.72 17.69 L 31.02 15.43 C 31.16 15.16 31.07 14.82 30.8 14.67 C 30.54 14.52 30.2 14.6 30.04 14.86 L 28.74 17.13 C 28.58 17.4 28.67 17.75 28.94 17.9 Z M 23.96 16.56 C 24.11 16.56 24.26 16.5 24.36 16.39 C 24.47 16.29 24.53 16.14 24.53 15.99 L 24.53 13.38 C 24.53 13.06 24.27 12.81 23.96 12.81 C 23.65 12.81 23.4 13.06 23.4 13.38 L 23.4 15.99 C 23.39 16.14 23.45 16.29 23.56 16.39 C 23.67 16.5 23.81 16.56 23.96 16.56 Z M 18.21 17.69 C 18.37 17.96 18.71 18.04 18.97 17.89 C 19.24 17.73 19.33 17.4 19.19 17.12 L 17.88 14.86 C 17.78 14.68 17.6 14.57 17.39 14.57 C 17.19 14.57 17 14.68 16.9 14.86 C 16.8 15.04 16.8 15.25 16.9 15.43 Z M 15.12 20.79 L 12.87 19.48 C 12.69 19.37 12.47 19.37 12.29 19.47 C 12.11 19.57 12 19.76 12 19.97 C 12.01 20.18 12.12 20.37 12.3 20.47 L 14.56 21.78 C 14.73 21.88 14.95 21.89 15.13 21.79 C 15.31 21.68 15.42 21.49 15.42 21.29 C 15.42 21.08 15.31 20.89 15.12 20.79 Z" fill="#1192e8" stroke="none" pointer-events="all" style="fill: light-dark(rgb(17, 146, 232), rgb(38, 149, 223));"/></g></g></g><g data-cell-id="tpA2slG5kOivLTeZdrLU-4"><g><rect x="0" y="0" width="4" height="48" fill="#1192e8" stroke="none" pointer-events="all" style="fill: light-dark(rgb(17, 146, 232), rgb(38, 149, 223));"/></g></g><g data-cell-id="tpA2slG5kOivLTeZdrLU-5"><g><rect x="40" y="60" width="680" height="570" fill="none" stroke="#878d96" pointer-events="all" style="stroke: light-dark(rgb(135, 141, 150), rgb(112, 117, 125));"/></g><g data-cell-id="tpA2slG5kOivLTeZdrLU-6"><g><rect x="40" y="60" width="48" height="48" fill="none" stroke="none" pointer-events="all"/></g><g><g fill="#000000" font-family="&quot;Helvetica&quot;" font-size="14px" style="fill: light-dark(rgb(0, 0, 0), rgb(255, 255, 255));"><text x="94.5" y="89.5">Region</text></g></g><g data-cell-id="tpA2slG5kOivLTeZdrLU-7"><g><rect x="52" y="72" width="24" height="24" fill="none" stroke="none" pointer-events="all"/><rect x="52" y="72" width="0" height="0" fill="none" stroke="none" pointer-events="all"/><path d="M 64 85.5 C 61.93 85.5 60.25 83.82 60.25 81.75 C 60.25 79.68 61.93 78 64 78 C 66.07 78 67.75 79.68 67.75 81.75 C 67.75 83.82 66.07 85.5 64 85.5 Z M 64 79.5 C 62.76 79.5 61.75 80.51 61.75 81.75 C 61.75 82.99 62.76 84 64 84 C 65.24 84 66.25 82.99 66.25 81.75 C 66.25 80.51 65.24 79.5 64 79.5 Z" fill="#878d96" stroke="none" pointer-events="all" style="fill: light-dark(rgb(135, 141, 150), rgb(112, 117, 125));"/><path d="M 64 94.5 L 57.67 87.04 C 57.59 86.93 57.5 86.81 57.41 86.7 C 56.33 85.28 55.75 83.54 55.75 81.75 C 55.75 77.19 59.44 73.5 64 73.5 C 68.56 73.5 72.25 77.19 72.25 81.75 C 72.25 83.54 71.67 85.27 70.59 86.7 L 70.59 86.7 C 70.59 86.7 70.36 87 70.33 87.04 Z M 58.61 85.8 C 58.61 85.8 58.78 86.03 58.82 86.08 L 64 92.18 L 69.18 86.07 C 69.22 86.03 69.39 85.79 69.39 85.79 C 70.27 84.63 70.75 83.21 70.75 81.75 C 70.75 78.02 67.73 75 64 75 C 60.27 75 57.25 78.02 57.25 81.75 C 57.25 83.21 57.73 84.63 58.61 85.8 Z" fill="#878d96" stroke="none" pointer-events="all" style="fill: light-dark(rgb(135, 141, 150), rgb(112, 117, 125));"/></g></g></g><g data-cell-id="tpA2slG5kOivLTeZdrLU-8"><g><rect x="40" y="60" width="4" height="48" fill="#878d96" stroke="none" pointer-events="all" style="fill: light-dark(rgb(135, 141, 150), rgb(112, 117, 125));"/></g></g><g data-cell-id="tpA2slG5kOivLTeZdrLU-9"><g><rect x="95" y="140" width="570" height="440" fill="none" stroke="#fa4d56" stroke-width="2" pointer-events="all" style="stroke: light-dark(rgb(250, 77, 86), rgb(255, 106, 114));"/></g><g data-cell-id="tpA2slG5kOivLTeZdrLU-10"><g><rect x="95" y="140" width="48" height="48" fill="none" stroke="none" pointer-events="all"/></g><g><g fill="#000000" font-family="&quot;Helvetica&quot;" font-size="14px" style="fill: light-dark(rgb(0, 0, 0), rgb(255, 255, 255));"><text x="149.5" y="169.5">Resource Group</text></g></g><g data-cell-id="tpA2slG5kOivLTeZdrLU-11"><g><rect x="107" y="152" width="24" height="24" fill="none" stroke="none" pointer-events="all"/><rect x="107" y="152" width="0" height="0" fill="none" stroke="none" pointer-events="all"/><path d="M 123.5 170 L 114.5 170 C 113.67 170 113 169.33 113 168.5 L 113 159.5 C 113 158.67 113.67 158 114.5 158 L 123.5 158 C 124.33 158 125 158.67 125 159.5 L 125 168.5 C 125 169.33 124.33 170 123.5 170 Z M 114.5 159.5 L 114.5 168.5 L 123.5 168.5 L 123.5 159.5 Z M 113 174.5 L 110 174.5 C 109.17 174.5 108.5 173.83 108.5 173 L 108.5 155 C 108.5 154.17 109.17 153.5 110 153.5 L 113 153.5 L 113 155 L 110 155 L 110 173 L 113 173 Z M 128 174.5 L 125 174.5 L 125 173 L 128 173 L 128 155 L 125 155 L 125 153.5 L 128 153.5 C 128.83 153.5 129.5 154.17 129.5 155 L 129.5 173 C 129.5 173.83 128.83 174.5 128 174.5 Z" fill="#fa4d56" stroke="none" pointer-events="all" style="fill: light-dark(rgb(250, 77, 86), rgb(255, 106, 114));"/></g></g></g><g data-cell-id="tpA2slG5kOivLTeZdrLU-30"><g><rect x="335" y="180" width="295" height="360" fill="none" stroke="#0e3c96" pointer-events="all" style="stroke: light-dark(rgb(14, 60, 150), rgb(152, 191, 255));"/></g><g data-cell-id="tpA2slG5kOivLTeZdrLU-31"><g><rect x="335" y="180" width="4" height="48" fill="#055de1" stroke="none" pointer-events="all" style="fill: light-dark(rgb(5, 93, 225), rgb(112, 117, 125));"/></g><g><g fill="#000000" font-family="&quot;Helvetica&quot;" font-size="13px" style="fill: light-dark(rgb(0, 0, 0), rgb(255, 255, 255));"><text x="345.5" y="209">          Cloud Automation for Observability</text></g></g></g><g data-cell-id="tpA2slG5kOivLTeZdrLU-61"><g><rect x="452.5" y="230" width="60" height="60" fill="#009d9a" stroke="none" pointer-events="all" style="fill: light-dark(rgb(0, 157, 154), rgb(25, 160, 157));"/></g><g><g fill="#000000" font-family="&quot;Helvetica&quot;" text-anchor="middle" font-size="14px" style="fill: light-dark(rgb(0, 0, 0), rgb(255, 255, 255));"><text x="482" y="309.5">Cloud Logs</text></g></g><g data-cell-id="tpA2slG5kOivLTeZdrLU-62"><g><rect x="464.5" y="242" width="24" height="24" fill="none" stroke="none" pointer-events="all"/><rect x="464.5" y="242" width="0" height="0" fill="none" stroke="none" pointer-events="all"/><path d="M 482.8 249.5 C 483.03 249.88 483.32 250.17 483.78 250.4 L 484.75 250.85 L 485.72 250.4 C 486.47 250.03 487 249.2 487 248.38 L 487 245 L 484.75 245 L 484.75 243.5 L 488.5 243.5 L 488.5 248.38 C 488.5 249.8 487.68 251.15 486.32 251.75 L 484.68 252.5 L 483.1 251.75 C 482.13 251.3 481.45 250.47 481.15 249.5 Z" fill="#ffffff" stroke="none" pointer-events="all" style="fill: light-dark(rgb(255, 255, 255), rgb(18, 18, 18));"/><path d="M 476.5 246.5 L 482.5 246.5 L 482.5 248 L 476.5 248 Z M 476.5 243.5 L 482.5 243.5 L 482.5 245 L 476.5 245 Z" fill="#ffffff" stroke="none" pointer-events="all" style="fill: light-dark(rgb(255, 255, 255), rgb(18, 18, 18));"/><path d="M 485.5 254 L 485.5 258.5 L 467.5 258.5 L 467.5 246.5 L 475 246.5 L 475 245 L 467.5 245 C 466.68 245 466 245.67 466 246.5 L 466 258.5 C 466 259.33 466.68 260 467.5 260 L 473.5 260 L 473.5 263 L 470.5 263 L 470.5 264.5 L 482.5 264.5 L 482.5 263 L 479.5 263 L 479.5 260 L 485.5 260 C 486.32 260 487 259.33 487 258.5 L 487 254 Z M 478 263 L 475 263 L 475 260 L 478 260 Z" fill="#ffffff" stroke="none" pointer-events="all" style="fill: light-dark(rgb(255, 255, 255), rgb(18, 18, 18));"/></g></g></g><g data-cell-id="tpA2slG5kOivLTeZdrLU-63"><g><rect x="452.5" y="330" width="60" height="60" fill="#009d9a" stroke="none" pointer-events="all" style="fill: light-dark(rgb(0, 157, 154), rgb(25, 160, 157));"/></g><g><g fill="#000000" font-family="&quot;Helvetica&quot;" text-anchor="middle" font-size="14px" style="fill: light-dark(rgb(0, 0, 0), rgb(255, 255, 255));"><text x="482" y="409.5">Flow Logs</text></g></g><g data-cell-id="tpA2slG5kOivLTeZdrLU-64"><g><rect x="464.5" y="342" width="24" height="24" fill="none" stroke="none" pointer-events="all"/><rect x="464.5" y="342" width="0" height="0" fill="none" stroke="none" pointer-events="all"/><path d="M 478 356.25 L 487 356.25 L 487 357.75 L 478 357.75 Z M 478 359.25 L 487 359.25 L 487 360.75 L 478 360.75 Z M 478 362.25 L 484 362.25 L 484 363.75 L 478 363.75 Z" fill="#ffffff" stroke="none" pointer-events="all" style="fill: light-dark(rgb(255, 255, 255), rgb(18, 18, 18));"/><path d="M 482.5 345 C 481.14 345 479.95 345.93 479.61 347.25 L 473.5 347.25 L 473.5 345 L 467.5 345 L 467.5 351 L 473.5 351 L 473.5 348.75 L 479.61 348.75 C 479.68 349.02 479.78 349.28 479.93 349.51 L 472.01 357.43 C 471.56 357.15 471.03 357 470.5 357 C 468.94 356.99 467.64 358.19 467.5 359.74 C 467.36 361.29 468.44 362.69 469.98 362.96 C 471.52 363.22 473 362.26 473.39 360.75 L 476.5 360.75 L 476.5 359.25 L 473.39 359.25 C 473.32 358.98 473.22 358.72 473.07 358.49 L 480.99 350.57 C 481.44 350.85 481.97 351 482.5 351 C 484.16 351 485.5 349.66 485.5 348 C 485.5 346.34 484.16 345 482.5 345 Z M 472 349.5 L 469 349.5 L 469 346.5 L 472 346.5 Z M 470.5 361.5 C 469.67 361.5 469 360.83 469 360 C 469 359.17 469.67 358.5 470.5 358.5 C 471.33 358.5 472 359.17 472 360 C 472 360.83 471.33 361.5 470.5 361.5 Z M 482.5 349.5 C 481.67 349.5 481 348.83 481 348 C 481 347.17 481.67 346.5 482.5 346.5 C 483.33 346.5 484 347.17 484 348 C 484 348.83 483.33 349.5 482.5 349.5 Z" fill="#ffffff" stroke="none" pointer-events="all" style="fill: light-dark(rgb(255, 255, 255), rgb(18, 18, 18));"/></g></g></g></g><g data-cell-id="tpA2slG5kOivLTeZdrLU-52"><g><rect x="135" y="235" width="175" height="175" fill="#a56eff" stroke="none" pointer-events="all" style="fill: light-dark(rgb(165, 110, 255), rgb(153, 105, 230));"/></g><g><g fill="#000000" font-family="&quot;Helvetica&quot;" text-anchor="middle" font-size="14px" style="fill: light-dark(rgb(0, 0, 0), rgb(255, 255, 255));"><text x="222" y="429.5">Watson Discovery</text></g></g><g data-cell-id="tpA2slG5kOivLTeZdrLU-53"><g><rect x="147" y="247" width="24" height="24" fill="none" stroke="none" pointer-events="all"/><path d="M 151.5 259.75 L 157.5 259.75 L 157.5 261.25 L 151.5 261.25 Z" fill="#ffffff" stroke="none" pointer-events="all" style="fill: light-dark(rgb(255, 255, 255), rgb(18, 18, 18));"/><rect x="147" y="247" width="0" height="0" fill="none" stroke="none" pointer-events="all"/><ellipse cx="149.25" cy="260.5" rx="0.75" ry="0.75" fill="#ffffff" stroke="none" pointer-events="all" style="fill: light-dark(rgb(255, 255, 255), rgb(18, 18, 18));"/><ellipse cx="156.75" cy="257.5" rx="0.75" ry="0.75" fill="#ffffff" stroke="none" pointer-events="all" style="fill: light-dark(rgb(255, 255, 255), rgb(18, 18, 18));"/><path d="M 148.5 256.75 L 154.5 256.75 L 154.5 258.25 L 148.5 258.25 Z M 151.5 253.75 L 157.5 253.75 L 157.5 255.25 L 151.5 255.25 Z" fill="#ffffff" stroke="none" pointer-events="all" style="fill: light-dark(rgb(255, 255, 255), rgb(18, 18, 18));"/><ellipse cx="149.25" cy="254.5" rx="0.75" ry="0.75" fill="#ffffff" stroke="none" pointer-events="all" style="fill: light-dark(rgb(255, 255, 255), rgb(18, 18, 18));"/><path d="M 169.5 268.45 L 163.95 262.9 C 165.08 261.4 165.75 259.53 165.75 257.5 C 165.75 252.55 161.7 248.5 156.75 248.5 C 154.28 248.5 151.95 249.47 150.22 251.35 L 151.35 252.4 C 152.7 250.83 154.65 250 156.75 250 C 160.88 250 164.25 253.38 164.25 257.5 C 164.25 261.63 160.88 265 156.75 265 C 154.5 265 152.4 264.03 150.97 262.3 L 149.85 263.28 C 151.5 265.3 154.05 266.5 156.75 266.5 C 159.15 266.5 161.33 265.53 162.97 264.03 L 168.45 269.5 Z" fill="#ffffff" stroke="none" pointer-events="all" style="fill: light-dark(rgb(255, 255, 255), rgb(18, 18, 18));"/></g></g></g></g></g></g><g data-cell-id="tpA2slG5kOivLTeZdrLU-65"><g><rect x="450" y="430" width="60" height="60" fill="#009d9a" stroke="none" pointer-events="all" style="fill: light-dark(rgb(0, 157, 154), rgb(25, 160, 157));"/></g><g><g fill="#000000" font-family="&quot;Helvetica&quot;" text-anchor="middle" font-size="14px" style="fill: light-dark(rgb(0, 0, 0), rgb(255, 255, 255));"><text x="479.5" y="509.5">Monitoring</text></g></g><g data-cell-id="tpA2slG5kOivLTeZdrLU-66"><g><rect x="462" y="442" width="24" height="24" fill="none" stroke="none" pointer-events="all"/><rect x="462" y="442" width="0" height="0" fill="none" stroke="none" pointer-events="all"/><path d="M 483 454 L 483 458.5 L 465 458.5 L 465 446.5 L 470.25 446.5 L 470.25 445 L 465 445 C 464.17 445 463.5 445.67 463.5 446.5 L 463.5 458.5 C 463.5 459.33 464.17 460 465 460 L 471 460 L 471 463 L 468 463 L 468 464.5 L 480 464.5 L 480 463 L 477 463 L 477 460 L 483 460 C 483.83 460 484.5 459.33 484.5 458.5 L 484.5 454 Z M 475.5 463 L 472.5 463 L 472.5 460 L 475.5 460 Z" fill="#ffffff" stroke="none" pointer-events="all" style="fill: light-dark(rgb(255, 255, 255), rgb(18, 18, 18));"/><path d="M 475.5 455.5 L 475.49 455.5 C 475.16 455.5 474.87 455.28 474.78 454.96 L 473.43 450.25 L 470.25 450.25 L 470.25 448.75 L 474 448.75 C 474.33 448.75 474.63 448.97 474.72 449.29 L 475.53 452.11 L 477.78 444.78 C 477.88 444.47 478.17 444.25 478.5 444.25 C 478.82 444.25 479.11 444.45 479.21 444.76 L 480.54 448.75 L 484.5 448.75 L 484.5 450.25 L 480 450.25 C 479.68 450.25 479.39 450.04 479.29 449.74 L 478.53 447.46 L 476.22 454.97 C 476.12 455.29 475.83 455.5 475.5 455.5 Z" fill="#ffffff" stroke="none" pointer-events="all" style="fill: light-dark(rgb(255, 255, 255), rgb(18, 18, 18));"/></g></g></g></g></g></g></svg>